<?xml version="1.0" standalone="yes"?>

<svg version="1.1" viewBox="0.0 0.0 444.0 222.0" fill="none" stroke="none" stroke-linecap="square" stroke-miterlimit="10" clip-path="url(#p.0)" xmlns="http://www.w3.org/2000/svg" xmlns:xlink="http://www.w3.org/1999/xlink"><clipPath id="p.0"><path d="m0 0l444.0 0l0 222.0l-444.0 0l0 -222.0z" clip-rule="nonzero"></path></clipPath><path fill="#efefef" stroke="#000000" stroke-width="2.0" stroke-linejoin="round" stroke-linecap="butt" d="m45.351707 16.604986l0 0c0 -6.528846 5.292675 -11.821522 11.821522 -11.821522l93.14435 0c3.1352692 0 6.1421204 1.2454782 8.359085 3.4624443c2.2169647 2.2169647 3.4624481 5.223816 3.4624481 8.359077l0 47.286087c0 6.5288467 -5.292679 11.821526 -11.821533 11.821526l-93.14435 0c-6.5288467 0 -11.821522 -5.292679 -11.821522 -11.821526z" fill-rule="nonzero"></path><path fill="#000000" d="m76.32549 43.47459l1.65625 -0.265625q0.140625 1.0 0.7734375 1.5234375q0.6328125 0.5234375 1.7734375 0.5234375q1.15625 0 1.7109375 -0.46875q0.5546875 -0.46875 0.5546875 -1.09375q0 -0.5625 -0.484375 -0.890625q-0.34375 -0.21875 -1.703125 -0.5625q-1.84375 -0.46875 -2.5546875 -0.8046875q-0.7109375 -0.3359375 -1.078125 -0.9375q-0.3671875 -0.6015625 -0.3671875 -1.3203125q0 -0.65625 0.3046875 -1.21875q0.3046875 -0.5625 0.8203125 -0.9375q0.390625 -0.28125 1.0625 -0.484375q0.671875 -0.203125 1.4375 -0.203125q1.171875 0 2.046875 0.3359375q0.875 0.3359375 1.2890625 0.90625q0.4140625 0.5703125 0.5703125 1.5234375l-1.625 0.21875q-0.109375 -0.75 -0.6484375 -1.1796875q-0.5390625 -0.4296875 -1.5078125 -0.4296875q-1.15625 0 -1.640625 0.3828125q-0.484375 0.3828125 -0.484375 0.8828125q0 0.328125 0.203125 0.59375q0.203125 0.265625 0.640625 0.4375q0.25 0.09375 1.46875 0.4375q1.765625 0.46875 2.46875 0.765625q0.703125 0.296875 1.1015625 0.875q0.3984375 0.578125 0.3984375 1.4375q0 0.828125 -0.484375 1.5703125q-0.484375 0.7421875 -1.40625 1.140625q-0.921875 0.3984375 -2.078125 0.3984375q-1.921875 0 -2.9296875 -0.796875q-1.0078125 -0.796875 -1.2890625 -2.359375zm16.75 -0.234375l1.71875 0.21875q-0.40625 1.5 -1.5078125 2.3359375q-1.1015625 0.8359375 -2.8203125 0.8359375q-2.15625 0 -3.421875 -1.328125q-1.265625 -1.328125 -1.265625 -3.734375q0 -2.484375 1.2734375 -3.859375q1.2734375 -1.375 3.3203125 -1.375q1.984375 0 3.234375 1.34375q1.25 1.34375 1.25 3.796875q0 0.140625 -0.015625 0.4375l-7.34375 0q0.09375 1.625 0.921875 2.484375q0.828125 0.859375 2.0625 0.859375q0.90625 0 1.5546875 -0.4765625q0.6484375 -0.4765625 1.0390625 -1.5390625zm-5.484375 -2.703125l5.5 0q-0.109375 -1.234375 -0.625 -1.859375q-0.796875 -0.96875 -2.078125 -0.96875q-1.140625 0 -1.9296875 0.7734375q-0.7890625 0.7734375 -0.8671875 2.0546875zm15.547592 4.65625q-0.9375 0.796875 -1.796875 1.1171875q-0.859375 0.3203125 -1.84375 0.3203125q-1.609375 0 -2.484375 -0.7890625q-0.875 -0.7890625 -0.875 -2.0234375q0 -0.734375 0.328125 -1.328125q0.328125 -0.59375 0.859375 -0.953125q0.53125 -0.359375 1.203125 -0.546875q0.5 -0.140625 1.484375 -0.25q2.03125 -0.25 2.984375 -0.578125q0 -0.34375 0 -0.4375q0 -1.015625 -0.46875 -1.4375q-0.640625 -0.5625 -1.90625 -0.5625q-1.171875 0 -1.734375 0.40625q-0.5625 0.40625 -0.828125 1.46875l-1.640625 -0.234375q0.234375 -1.046875 0.7421875 -1.6875q0.5078125 -0.640625 1.46875 -0.9921875q0.9609375 -0.3515625 2.2421875 -0.3515625q1.265625 0 2.046875 0.296875q0.78125 0.296875 1.15625 0.75q0.375 0.453125 0.515625 1.140625q0.09375 0.421875 0.09375 1.53125l0 2.234375q0 2.328125 0.1015625 2.9453125q0.1015625 0.6171875 0.4296875 1.1796875l-1.75 0q-0.265625 -0.515625 -0.328125 -1.21875zm-0.140625 -3.71875q-0.90625 0.359375 -2.734375 0.625q-1.03125 0.140625 -1.453125 0.328125q-0.421875 0.1875 -0.65625 0.546875q-0.234375 0.359375 -0.234375 0.796875q0 0.671875 0.5078125 1.1171875q0.5078125 0.4453125 1.4765625 0.4453125q0.96875 0 1.71875 -0.4296875q0.75 -0.4296875 1.109375 -1.1484375q0.265625 -0.578125 0.265625 -1.671875l0 -0.609375zm4.063217 4.9375l0 -9.859375l1.5 0l0 1.5q0.578125 -1.046875 1.0625 -1.3828125q0.484375 -0.3359375 1.078125 -0.3359375q0.84375 0 1.71875 0.546875l-0.578125 1.546875q-0.609375 -0.359375 -1.234375 -0.359375q-0.546875 0 -0.9765625 0.328125q-0.4296875 0.328125 -0.6171875 0.90625q-0.28125 0.890625 -0.28125 1.953125l0 5.15625l-1.671875 0zm12.665802 -3.609375l1.640625 0.21875q-0.265625 1.6875 -1.375 2.6484375q-1.109375 0.9609375 -2.734375 0.9609375q-2.015625 0 -3.2421875 -1.3203125q-1.2265625 -1.3203125 -1.2265625 -3.7890625q0 -1.59375 0.5234375 -2.7890625q0.5234375 -1.1953125 1.609375 -1.796875q1.0859375 -0.6015625 2.3515625 -0.6015625q1.609375 0 2.625 0.8125q1.015625 0.8125 1.3125 2.3125l-1.625 0.25q-0.234375 -1.0 -0.828125 -1.5q-0.59375 -0.5 -1.421875 -0.5q-1.265625 0 -2.0546875 0.90625q-0.7890625 0.90625 -0.7890625 2.859375q0 1.984375 0.765625 2.8828125q0.765625 0.8984375 1.984375 0.8984375q0.984375 0 1.640625 -0.6015625q0.65625 -0.6015625 0.84375 -1.8515625zm2.890625 3.609375l0 -13.59375l1.671875 0l0 4.875q1.171875 -1.359375 2.953125 -1.359375q1.0937576 0 1.8984451 0.4296875q0.8046875 0.4296875 1.15625 1.1953125q0.3515625 0.765625 0.3515625 2.203125l0 6.25l-1.671875 0l0 -6.25q0 -1.25 -0.546875 -1.8203125q-0.5468826 -0.5703125 -1.5312576 -0.5703125q-0.75 0 -1.3984375 0.3828125q-0.6484375 0.3828125 -0.9296875 1.046875q-0.28125 0.6640625 -0.28125 1.8203125l0 5.390625l-1.671875 0z" fill-rule="nonzero"></path><path fill="#efefef" stroke="#000000" stroke-width="2.0" stroke-linejoin="round" stroke-linecap="butt" d="m281.6063 151.99475l0 0c0 -6.5288544 5.292694 -11.821518 11.821533 -11.821518l93.14435 0c3.135254 0 6.1421204 1.2454681 8.35907 3.4624329c2.21698 2.2169647 3.4624634 5.223816 3.4624634 8.359085l0 47.286087c0 6.5288544 -5.292694 11.821518 -11.821533 11.821518l-93.14435 0c-6.528839 0 -11.821533 -5.2926636 -11.821533 -11.821518z" fill-rule="nonzero"></path><path fill="#000000" d="m310.65576 181.80185l0 -13.59375l1.671875 0l0 4.875q1.171875 -1.359375 2.953125 -1.359375q1.09375 0 1.8984375 0.4296875q0.8046875 0.4296875 1.15625 1.1953125q0.3515625 0.765625 0.3515625 2.203125l0 6.25l-1.671875 0l0 -6.25q0 -1.25 -0.546875 -1.8203125q-0.546875 -0.5703125 -1.53125 -0.5703125q-0.75 0 -1.3984375 0.3828125q-0.6484375 0.3828125 -0.9296875 1.046875q-0.28125 0.6640625 -0.28125 1.8203125l0 5.390625l-1.671875 0zm9.750702 -4.921875q0 -2.734375 1.53125 -4.0625q1.265625 -1.09375 3.09375 -1.09375q2.03125 0 3.3203125 1.3359375q1.2890625 1.3359375 1.2890625 3.6796875q0 1.90625 -0.5703125 2.9921875q-0.5703125 1.0859375 -1.65625 1.6875q-1.0859375 0.6015625 -2.3828125 0.6015625q-2.0625 0 -3.34375 -1.328125q-1.28125 -1.328125 -1.28125 -3.8125zm1.71875 0q0 1.890625 0.828125 2.828125q0.828125 0.9375 2.078125 0.9375q1.25 0 2.0703125 -0.9453125q0.8203125 -0.9453125 0.8203125 -2.8828125q0 -1.828125 -0.828125 -2.765625q-0.828125 -0.9375 -2.0625 -0.9375q-1.25 0 -2.078125 0.9375q-0.828125 0.9375 -0.828125 2.828125zm9.281982 4.921875l0 -9.859375l1.5 0l0 1.390625q0.453125 -0.71875 1.2265625 -1.1640625q0.7734375 -0.4453125 1.7578125 -0.4453125q1.09375 0 1.796875 0.453125q0.703125 0.453125 0.984375 1.28125q1.171875 -1.734375 3.046875 -1.734375q1.46875 0 2.2578125 0.8125q0.7890625 0.8125 0.7890625 2.5l0 6.765625l-1.671875 0l0 -6.203125q0 -1.0 -0.15625 -1.4453125q-0.15625 -0.4453125 -0.5859375 -0.7109375q-0.4296875 -0.265625 -1.0078125 -0.265625q-1.03125 0 -1.71875 0.6875q-0.6875 0.6875 -0.6875 2.21875l0 5.71875l-1.671875 0l0 -6.40625q0 -1.109375 -0.40625 -1.6640625q-0.40625 -0.5546875 -1.34375 -0.5546875q-0.703125 0 -1.3046875 0.3671875q-0.6015625 0.3671875 -0.8671875 1.0859375q-0.265625 0.71875 -0.265625 2.0625l0 5.109375l-1.671875 0zm15.556427 -11.6875l0 -1.90625l1.671875 0l0 1.90625l-1.671875 0zm0 11.6875l0 -9.859375l1.671875 0l0 9.859375l-1.671875 0zm4.129181 0l0 -9.859375l1.5 0l0 1.40625q1.09375 -1.625 3.140625 -1.625q0.890625 0 1.640625 0.3203125q0.75 0.3203125 1.1171875 0.84375q0.3671875 0.5234375 0.5234375 1.2265625q0.09375 0.46875 0.09375 1.625l0 6.0625l-1.671875 0l0 -6.0q0 -1.015625 -0.1953125 -1.5234375q-0.1953125 -0.5078125 -0.6953125 -0.8046875q-0.5 -0.296875 -1.171875 -0.296875q-1.0625 0 -1.8359375 0.671875q-0.7734375 0.671875 -0.7734375 2.578125l0 5.375l-1.671875 0zm10.078857 0.8125l1.609375 0.25q0.109375 0.75 0.578125 1.09375q0.609375 0.453125 1.6875 0.453125q1.171875 0 1.796875 -0.4609375q0.625 -0.4609375 0.859375 -1.2890625q0.125 -0.515625 0.109375 -2.15625q-1.09375 1.296875 -2.71875 1.296875q-2.03125 0 -3.1484375 -1.46875q-1.1171875 -1.46875 -1.1171875 -3.515625q0 -1.40625 0.515625 -2.6015625q0.515625 -1.1953125 1.484375 -1.84375q0.96875 -0.6484375 2.265625 -0.6484375q1.75 0 2.875 1.40625l0 -1.1875l1.546875 0l0 8.515625q0 2.3125 -0.46875 3.2734375q-0.46875 0.9609375 -1.484375 1.515625q-1.015625 0.5546875 -2.5 0.5546875q-1.765625 0 -2.8515625 -0.796875q-1.0859375 -0.796875 -1.0390625 -2.390625zm1.375 -5.921875q0 1.953125 0.7734375 2.84375q0.7734375 0.890625 1.9296875 0.890625q1.140625 0 1.921875 -0.890625q0.78125 -0.890625 0.78125 -2.78125q0 -1.8125 -0.8046875 -2.7265625q-0.8046875 -0.9140625 -1.9296875 -0.9140625q-1.109375 0 -1.890625 0.8984375q-0.78125 0.8984375 -0.78125 2.6796875z" fill-rule="nonzero"></path><path fill="#efefef" stroke="#000000" stroke-width="2.0" stroke-linejoin="round" stroke-linecap="butt" d="m45.351707 151.99475l0 0c0 -6.5288544 5.292675 -11.821518 11.821522 -11.821518l93.14435 0c3.1352692 0 6.1421204 1.2454681 8.359085 3.4624329c2.2169647 2.2169647 3.4624481 5.223816 3.4624481 8.359085l0 47.286087c0 6.5288544 -5.292679 11.821518 -11.821533 11.821518l-93.14435 0c-6.5288467 0 -11.821522 -5.2926636 -11.821522 -11.821518z" fill-rule="nonzero"></path><path fill="#000000" d="m81.30647 181.80185l0 -1.25q-0.9375 1.46875 -2.75 1.46875q-1.171875 0 -2.1640625 -0.6484375q-0.9921875 -0.6484375 -1.53125 -1.8125q-0.5390625 -1.1640625 -0.5390625 -2.6796875q0 -1.46875 0.4921875 -2.671875q0.4921875 -1.203125 1.46875 -1.84375q0.9765625 -0.640625 2.1953125 -0.640625q0.890625 0 1.5859375 0.375q0.6953125 0.375 1.1328125 0.984375l0 -4.875l1.65625 0l0 13.59375l-1.546875 0zm-5.28125 -4.921875q0 1.890625 0.8046875 2.828125q0.8046875 0.9375 1.8828125 0.9375q1.09375 0 1.859375 -0.890625q0.765625 -0.890625 0.765625 -2.734375q0 -2.015625 -0.78125 -2.9609375q-0.78125 -0.9453125 -1.921875 -0.9453125q-1.109375 0 -1.859375 0.90625q-0.75 0.90625 -0.75 2.859375zm16.016342 1.75l1.71875 0.21875q-0.40625 1.5 -1.5078125 2.3359375q-1.1015625 0.8359375 -2.8203125 0.8359375q-2.15625 0 -3.421875 -1.328125q-1.265625 -1.328125 -1.265625 -3.734375q0 -2.484375 1.2734375 -3.859375q1.2734375 -1.375 3.3203125 -1.375q1.984375 0 3.234375 1.34375q1.25 1.34375 1.25 3.796875q0 0.140625 -0.015625 0.4375l-7.34375 0q0.09375 1.625 0.921875 2.484375q0.828125 0.859375 2.0625 0.859375q0.90625 0 1.5546875 -0.4765625q0.6484375 -0.4765625 1.0390625 -1.5390625zm-5.484375 -2.703125l5.5 0q-0.109375 -1.234375 -0.625 -1.859375q-0.796875 -0.96875 -2.078125 -0.96875q-1.140625 0 -1.9296875 0.7734375q-0.7890625 0.7734375 -0.8671875 2.0546875zm9.110092 9.65625l0 -13.640625l1.53125 0l0 1.28125q0.53125 -0.75 1.2109375 -1.125q0.6796875 -0.375 1.6328125 -0.375q1.265625 0 2.234375 0.6484375q0.96875 0.6484375 1.4609375 1.8359375q0.4921875 1.1875 0.4921875 2.59375q0 1.515625 -0.546875 2.7265625q-0.546875 1.2109375 -1.578125 1.8515625q-1.03125 0.640625 -2.171875 0.640625q-0.84375 0 -1.5078125 -0.3515625q-0.6640625 -0.3515625 -1.0859375 -0.8828125l0 4.796875l-1.671875 0zm1.515625 -8.65625q0 1.90625 0.7734375 2.8125q0.7734375 0.90625 1.8671875 0.90625q1.109375 0 1.8984375 -0.9375q0.7890625 -0.9375 0.7890625 -2.921875q0 -1.875 -0.7734375 -2.8125q-0.7734375 -0.9375 -1.8515625 -0.9375q-1.0625 0 -1.8828125 1.0q-0.8203125 1.0 -0.8203125 2.890625zm8.235092 -0.046875q0 -2.734375 1.53125 -4.0625q1.265625 -1.09375 3.09375 -1.09375q2.03125 0 3.3203049 1.3359375q1.2890625 1.3359375 1.2890625 3.6796875q0 1.90625 -0.5703125 2.9921875q-0.5703125 1.0859375 -1.6562424 1.6875q-1.0859375 0.6015625 -2.3828125 0.6015625q-2.0625 0 -3.34375 -1.328125q-1.28125 -1.328125 -1.28125 -3.8125zm1.71875 0q0 1.890625 0.828125 2.828125q0.828125 0.9375 2.078125 0.9375q1.25 0 2.0703125 -0.9453125q0.8203049 -0.9453125 0.8203049 -2.8828125q0 -1.828125 -0.8281174 -2.765625q-0.828125 -0.9375 -2.0625 -0.9375q-1.25 0 -2.078125 0.9375q-0.828125 0.9375 -0.828125 2.828125zm8.610085 1.984375l1.65625 -0.265625q0.140625 1.0 0.7734375 1.5234375q0.6328125 0.5234375 1.7734375 0.5234375q1.15625 0 1.7109375 -0.46875q0.5546875 -0.46875 0.5546875 -1.09375q0 -0.5625 -0.484375 -0.890625q-0.34375 -0.21875 -1.703125 -0.5625q-1.84375 -0.46875 -2.5546875 -0.8046875q-0.7109375 -0.3359375 -1.078125 -0.9375q-0.3671875 -0.6015625 -0.3671875 -1.3203125q0 -0.65625 0.3046875 -1.21875q0.3046875 -0.5625 0.8203125 -0.9375q0.390625 -0.28125 1.0625 -0.484375q0.671875 -0.203125 1.4375 -0.203125q1.171875 0 2.046875 0.3359375q0.875 0.3359375 1.2890625 0.90625q0.4140625 0.5703125 0.5703125 1.5234375l-1.625 0.21875q-0.109375 -0.75 -0.6484375 -1.1796875q-0.5390625 -0.4296875 -1.5078125 -0.4296875q-1.15625 0 -1.640625 0.3828125q-0.484375 0.3828125 -0.484375 0.8828125q0 0.328125 0.203125 0.59375q0.203125 0.265625 0.640625 0.4375q0.25 0.09375 1.46875 0.4375q1.765625 0.46875 2.46875 0.765625q0.703125 0.296875 1.1015625 0.875q0.3984375 0.578125 0.3984375 1.4375q0 0.828125 -0.484375 1.5703125q-0.484375 0.7421875 -1.40625 1.140625q-0.921875 0.3984375 -2.078125 0.3984375q-1.921875 0 -2.9296875 -0.796875q-1.0078125 -0.796875 -1.2890625 -2.359375zm10.015625 -8.75l0 -1.90625l1.671875 0l0 1.90625l-1.671875 0zm0 11.6875l0 -9.859375l1.671875 0l0 9.859375l-1.671875 0zm7.785454 -1.5l0.234375 1.484375q-0.703125 0.140625 -1.265625 0.140625q-0.90625 0 -1.40625 -0.2890625q-0.5 -0.2890625 -0.703125 -0.75q-0.203125 -0.4609375 -0.203125 -1.9765625l0 -5.65625l-1.234375 0l0 -1.3125l1.234375 0l0 -2.4375l1.65625 -1.0l0 3.4375l1.6875 0l0 1.3125l-1.6875 0l0 5.75q0 0.71875 0.0859375 0.921875q0.0859375 0.203125 0.2890625 0.328125q0.203125 0.125 0.578125 0.125q0.265625 0 0.734375 -0.078125z" fill-rule="nonzero"></path><path fill="#efefef" stroke="#000000" stroke-width="2.0" stroke-linejoin="round" stroke-linecap="butt" d="m281.6063 16.034777l0 0c0 -6.5288467 5.292694 -11.821522 11.821533 -11.821522l93.14435 0c3.135254 0 6.1421204 1.2454782 8.35907 3.4624438c2.21698 2.2169657 3.4624634 5.223816 3.4624634 8.359078l0 47.286087c0 6.5288506 -5.292694 11.821522 -11.821533 11.821522l-93.14435 0c-6.528839 0 -11.821533 -5.292671 -11.821533 -11.821522z" fill-rule="nonzero"></path><path fill="#000000" d="m322.2832 46.65438l1.609375 0.25q0.109375 0.75 0.578125 1.09375q0.609375 0.453125 1.6875 0.453125q1.171875 0 1.796875 -0.4609375q0.625 -0.4609375 0.859375 -1.2890625q0.125 -0.515625 0.109375 -2.15625q-1.09375 1.296875 -2.71875 1.296875q-2.03125 0 -3.1484375 -1.46875q-1.1171875 -1.46875 -1.1171875 -3.515625q0 -1.40625 0.515625 -2.6015625q0.515625 -1.1953125 1.484375 -1.84375q0.96875 -0.6484375 2.265625 -0.6484375q1.75 0 2.875 1.40625l0 -1.1875l1.546875 0l0 8.515625q0 2.3125 -0.46875 3.2734375q-0.46875 0.9609375 -1.484375 1.515625q-1.015625 0.5546875 -2.5 0.5546875q-1.765625 0 -2.8515625 -0.796875q-1.0859375 -0.796875 -1.0390625 -2.390625zm1.375 -5.921875q0 1.953125 0.7734375 2.84375q0.7734375 0.890625 1.9296875 0.890625q1.140625 0 1.921875 -0.890625q0.78125 -0.890625 0.78125 -2.78125q0 -1.8125 -0.8046875 -2.7265625q-0.8046875 -0.9140625 -1.9296875 -0.9140625q-1.109375 0 -1.890625 0.8984375q-0.78125 0.8984375 -0.78125 2.6796875zm9.281982 5.109375l0 -9.859375l1.5 0l0 1.5q0.578125 -1.046875 1.0625 -1.3828125q0.484375 -0.3359375 1.078125 -0.3359375q0.84375 0 1.71875 0.546875l-0.578125 1.546875q-0.609375 -0.359375 -1.234375 -0.359375q-0.546875 0 -0.9765625 0.328125q-0.4296875 0.328125 -0.6171875 0.90625q-0.28125 0.890625 -0.28125 1.953125l0 5.15625l-1.671875 0zm12.665802 -1.21875q-0.9375 0.796875 -1.796875 1.1171875q-0.859375 0.3203125 -1.84375 0.3203125q-1.609375 0 -2.484375 -0.7890625q-0.875 -0.7890625 -0.875 -2.0234375q0 -0.734375 0.328125 -1.328125q0.328125 -0.59375 0.859375 -0.953125q0.53125 -0.359375 1.203125 -0.546875q0.5 -0.140625 1.484375 -0.25q2.03125 -0.25 2.984375 -0.578125q0 -0.34375 0 -0.4375q0 -1.015625 -0.46875 -1.4375q-0.640625 -0.5625 -1.90625 -0.5625q-1.171875 0 -1.734375 0.40625q-0.5625 0.40625 -0.828125 1.46875l-1.640625 -0.234375q0.234375 -1.046875 0.7421875 -1.6875q0.5078125 -0.640625 1.46875 -0.9921875q0.9609375 -0.3515625 2.2421875 -0.3515625q1.265625 0 2.046875 0.296875q0.78125 0.296875 1.15625 0.75q0.375 0.453125 0.515625 1.140625q0.09375 0.421875 0.09375 1.53125l0 2.234375q0 2.328125 0.1015625 2.9453125q0.1015625 0.6171875 0.4296875 1.1796875l-1.75 0q-0.265625 -0.515625 -0.328125 -1.21875zm-0.140625 -3.71875q-0.90625 0.359375 -2.734375 0.625q-1.03125 0.140625 -1.453125 0.328125q-0.421875 0.1875 -0.65625 0.546875q-0.234375 0.359375 -0.234375 0.796875q0 0.671875 0.5078125 1.1171875q0.5078125 0.4453125 1.4765625 0.4453125q0.96875 0 1.71875 -0.4296875q0.75 -0.4296875 1.109375 -1.1484375q0.265625 -0.578125 0.265625 -1.671875l0 -0.609375zm5.625702 4.9375l-1.546875 0l0 -13.59375l1.65625 0l0 4.84375q1.0625 -1.328125 2.703125 -1.328125q0.90625 0 1.71875 0.3671875q0.8125 0.3671875 1.3359375 1.03125q0.5234375 0.6640625 0.8203125 1.6015625q0.296875 0.9375 0.296875 2.0q0 2.53125 -1.25 3.9140625q-1.25 1.3828125 -3.0 1.3828125q-1.75 0 -2.734375 -1.453125l0 1.234375zm-0.015625 -5.0q0 1.765625 0.46875 2.5625q0.796875 1.28125 2.140625 1.28125q1.09375 0 1.890625 -0.9453125q0.796875 -0.9453125 0.796875 -2.8359375q0 -1.921875 -0.765625 -2.84375q-0.765625 -0.921875 -1.84375 -0.921875q-1.09375 0 -1.890625 0.953125q-0.796875 0.953125 -0.796875 2.75z" fill-rule="nonzero"></path><path stroke="#000000" stroke-width="2.0" stroke-linejoin="round" stroke-linecap="butt" d="m162.13911 40.24803l107.46733 -0.51293564" fill-rule="evenodd"></path><path fill="#000000" stroke="#000000" stroke-width="2.0" stroke-linecap="butt" d="m269.6222 43.038525l9.060333 -3.3467484l-9.091858 -3.260109z" fill-rule="evenodd"></path><path stroke="#000000" stroke-width="2.0" stroke-linejoin="round" stroke-linecap="butt" d="m340.0 75.14239l0 53.030846" fill-rule="evenodd"></path><path fill="#000000" stroke="#000000" stroke-width="2.0" stroke-linecap="butt" d="m336.69653 128.17323l3.3034668 9.076187l3.3034668 -9.076187z" fill-rule="evenodd"></path><path stroke="#000000" stroke-width="2.0" stroke-linejoin="round" stroke-linecap="butt" d="m103.74541 140.17323l0 -52.460632" fill-rule="evenodd"></path><path fill="#000000" stroke="#000000" stroke-width="2.0" stroke-linecap="butt" d="m107.048874 87.7126l-3.3034668 -9.076195l-3.3034668 9.076195z" fill-rule="evenodd"></path><path stroke="#000000" stroke-width="2.0" stroke-linejoin="round" stroke-linecap="butt" d="m281.6063 175.6378l-107.46718 0" fill-rule="evenodd"></path><path fill="#000000" stroke="#000000" stroke-width="2.0" stroke-linecap="butt" d="m174.13911 172.33434l-9.076202 3.3034668l9.076202 3.3034515z" fill-rule="evenodd"></path><path fill="#000000" d="m199.55464 26.888472l0 -8.546875l-1.484375 0l0 -1.3125l1.484375 0l0 -1.046874q0 -0.984375 0.171875 -1.46875q0.234375 -0.65625 0.84375 -1.0546875q0.609375 -0.3984375 1.703125 -0.3984375q0.703125 0 1.5625 0.15625l-0.25 1.46875q-0.515625 -0.09375 -0.984375 -0.09375q-0.765625 0 -1.078125 0.3203125q-0.3125 0.3203125 -0.3125 1.2109365l0 0.90625l1.921875 0l0 1.3125l-1.921875 0l0 8.546875l-1.65625 0zm4.152054 -4.921875q0 -2.734375 1.53125 -4.0625q1.265625 -1.09375 3.09375 -1.09375q2.03125 0 3.3203125 1.3359375q1.2890625 1.3359375 1.2890625 3.6796875q0 1.90625 -0.5703125 2.9921875q-0.5703125 1.0859375 -1.65625 1.6875q-1.0859375 0.6015625 -2.3828125 0.6015625q-2.0625 0 -3.34375 -1.328125q-1.28125 -1.328125 -1.28125 -3.8125zm1.71875 0q0 1.890625 0.828125 2.828125q0.828125 0.9375 2.078125 0.9375q1.25 0 2.0703125 -0.9453125q0.8203125 -0.9453125 0.8203125 -2.8828125q0 -1.828125 -0.828125 -2.765625q-0.828125 -0.9375 -2.0625 -0.9375q-1.25 0 -2.078125 0.9375q-0.828125 0.9375 -0.828125 2.828125zm15.735092 4.921875l0 -1.453125q-1.140625 1.671875 -3.125 1.671875q-0.859375 0 -1.6171875 -0.3359375q-0.7578125 -0.3359375 -1.125 -0.8359375q-0.3671875 -0.5 -0.5234375 -1.234375q-0.09375 -0.5 -0.09375 -1.5625l0 -6.109375l1.671875 0l0 5.46875q0 1.3125 0.09375 1.765625q0.15625 0.65625 0.671875 1.03125q0.515625 0.375 1.265625 0.375q0.75 0 1.40625 -0.3828125q0.65625 -0.3828125 0.9296875 -1.046875q0.2734375 -0.6640625 0.2734375 -1.9296875l0 -5.28125l1.671875 0l0 9.859375l-1.5 0zm3.9225922 0l0 -9.859375l1.5 0l0 1.40625q1.09375 -1.625 3.140625 -1.625q0.890625 0 1.640625 0.3203125q0.75 0.3203125 1.1171875 0.84375q0.3671875 0.5234375 0.5234375 1.2265625q0.09375 0.46875 0.09375 1.625l0 6.0625l-1.671875 0l0 -6.0q0 -1.015625 -0.1953125 -1.5234375q-0.1953125 -0.5078125 -0.6953125 -0.8046875q-0.5 -0.296875 -1.171875 -0.296875q-1.0625 0 -1.8359375 0.671875q-0.7734375 0.671875 -0.7734375 2.578125l0 5.375l-1.671875 0zm16.766342 0l0 -1.25q-0.9375 1.46875 -2.75 1.46875q-1.171875 0 -2.1640625 -0.6484375q-0.9921875 -0.6484375 -1.53125 -1.8125q-0.5390625 -1.1640625 -0.5390625 -2.6796875q0 -1.46875 0.4921875 -2.671875q0.4921875 -1.203125 1.46875 -1.84375q0.9765625 -0.640625 2.1953125 -0.640625q0.890625 0 1.5859375 0.375q0.6953125 0.375 1.1328125 0.984375l0 -4.874999l1.65625 0l0 13.593749l-1.546875 0zm-5.28125 -4.921875q0 1.890625 0.8046875 2.828125q0.8046875 0.9375 1.8828125 0.9375q1.09375 0 1.859375 -0.890625q0.765625 -0.890625 0.765625 -2.734375q0 -2.015625 -0.78125 -2.9609375q-0.78125 -0.9453125 -1.921875 -0.9453125q-1.109375 0 -1.859375 0.90625q-0.75 0.90625 -0.75 2.859375z" fill-rule="nonzero"></path><path fill="#000000" d="m358.37842 114.63437l1.609375 0.25q0.109375 0.75 0.578125 1.09375q0.609375 0.453125 1.6875 0.453125q1.171875 0 1.796875 -0.4609375q0.625 -0.4609375 0.859375 -1.2890625q0.125 -0.515625 0.109375 -2.15625q-1.09375 1.296875 -2.71875 1.296875q-2.03125 0 -3.1484375 -1.46875q-1.1171875 -1.46875 -1.1171875 -3.515625q0 -1.40625 0.515625 -2.6015625q0.515625 -1.1953125 1.484375 -1.84375q0.96875 -0.6484375 2.265625 -0.6484375q1.75 0 2.875 1.40625l0 -1.1875l1.546875 0l0 8.515625q0 2.3125 -0.46875 3.2734375q-0.46875 0.9609375 -1.484375 1.515625q-1.015625 0.5546875 -2.5 0.5546875q-1.765625 0 -2.8515625 -0.796875q-1.0859375 -0.796875 -1.0390625 -2.390625zm1.375 -5.921875q0 1.953125 0.7734375 2.84375q0.7734375 0.890625 1.9296875 0.890625q1.140625 0 1.921875 -0.890625q0.78125 -0.890625 0.78125 -2.78125q0 -1.8125 -0.8046875 -2.7265625q-0.8046875 -0.9140625 -1.9296875 -0.9140625q-1.109375 0 -1.890625 0.8984375q-0.78125 0.8984375 -0.78125 2.6796875zm9.281982 5.109375l0 -9.859375l1.5 0l0 1.5q0.578125 -1.046875 1.0625 -1.3828125q0.484375 -0.3359375 1.078125 -0.3359375q0.84375 0 1.71875 0.546875l-0.578125 1.546875q-0.609375 -0.359375 -1.234375 -0.359375q-0.546875 0 -0.9765625 0.328125q-0.4296875 0.328125 -0.6171875 0.90625q-0.28125 0.890625 -0.28125 1.953125l0 5.15625l-1.671875 0zm12.665802 -1.21875q-0.9375 0.796875 -1.796875 1.1171875q-0.859375 0.3203125 -1.84375 0.3203125q-1.609375 0 -2.484375 -0.7890625q-0.875 -0.7890625 -0.875 -2.0234375q0 -0.734375 0.328125 -1.328125q0.328125 -0.59375 0.859375 -0.953125q0.53125 -0.359375 1.203125 -0.546875q0.5 -0.140625 1.484375 -0.25q2.03125 -0.25 2.984375 -0.578125q0 -0.34375 0 -0.4375q0 -1.015625 -0.46875 -1.4375q-0.640625 -0.5625 -1.90625 -0.5625q-1.171875 0 -1.734375 0.40625q-0.5625 0.40625 -0.828125 1.46875l-1.640625 -0.234375q0.234375 -1.046875 0.7421875 -1.6875q0.5078125 -0.640625 1.46875 -0.9921875q0.9609375 -0.3515625 2.2421875 -0.3515625q1.265625 0 2.046875 0.296875q0.78125 0.296875 1.15625 0.75q0.375 0.453125 0.515625 1.140625q0.09375 0.421875 0.09375 1.53125l0 2.234375q0 2.328125 0.1015625 2.9453125q0.1015625 0.6171875 0.4296875 1.1796875l-1.75 0q-0.265625 -0.515625 -0.328125 -1.21875zm-0.140625 -3.71875q-0.90625 0.359375 -2.734375 0.625q-1.03125 0.140625 -1.453125 0.328125q-0.421875 0.1875 -0.65625 0.546875q-0.234375 0.359375 -0.234375 0.796875q0 0.671875 0.5078125 1.1171875q0.5078125 0.4453125 1.4765625 0.4453125q0.96875 0 1.71875 -0.4296875q0.75 -0.4296875 1.109375 -1.1484375q0.265625 -0.578125 0.265625 -1.671875l0 -0.609375zm5.625702 4.9375l-1.546875 0l0 -13.59375l1.65625 0l0 4.84375q1.0625 -1.328125 2.703125 -1.328125q0.90625 0 1.71875 0.3671875q0.8125 0.3671875 1.3359375 1.03125q0.5234375 0.6640625 0.8203125 1.6015625q0.296875 0.9375 0.296875 2.0q0 2.53125 -1.25 3.9140625q-1.25 1.3828125 -3.0 1.3828125q-1.75 0 -2.734375 -1.453125l0 1.234375zm-0.015625 -5.0q0 1.765625 0.46875 2.5625q0.796875 1.28125 2.140625 1.28125q1.09375 0 1.890625 -0.9453125q0.796875 -0.9453125 0.796875 -2.8359375q0 -1.921875 -0.765625 -2.84375q-0.765625 -0.921875 -1.84375 -0.921875q-1.09375 0 -1.890625 0.953125q-0.796875 0.953125 -0.796875 2.75zm10.391357 5.0l-1.546875 0l0 -13.59375l1.65625 0l0 4.84375q1.0625 -1.328125 2.703125 -1.328125q0.90625 0 1.71875 0.3671875q0.8125 0.3671875 1.3359375 1.03125q0.5234375 0.6640625 0.8203125 1.6015625q0.296875 0.9375 0.296875 2.0q0 2.53125 -1.25 3.9140625q-1.25 1.3828125 -3.0 1.3828125q-1.75 0 -2.734375 -1.453125l0 1.234375zm-0.015625 -5.0q0 1.765625 0.46875 2.5625q0.796875 1.28125 2.140625 1.28125q1.09375 0 1.890625 -0.9453125q0.796875 -0.9453125 0.796875 -2.8359375q0 -1.921875 -0.765625 -2.84375q-0.765625 -0.921875 -1.84375 -0.921875q-1.09375 0 -1.890625 0.953125q-0.796875 0.953125 -0.796875 2.75zm15.594452 1.828125l1.71875 0.21875q-0.40625 1.5 -1.5078125 2.3359375q-1.1015625 0.8359375 -2.8203125 0.8359375q-2.15625 0 -3.421875 -1.328125q-1.265625 -1.328125 -1.265625 -3.734375q0 -2.484375 1.2734375 -3.859375q1.2734375 -1.375 3.3203125 -1.375q1.984375 0 3.234375 1.34375q1.25 1.34375 1.25 3.796875q0 0.140625 -0.015625 0.4375l-7.34375 0q0.09375 1.625 0.921875 2.484375q0.828125 0.859375 2.0625 0.859375q0.90625 0 1.5546875 -0.4765625q0.6484375 -0.4765625 1.0390625 -1.5390625zm-5.484375 -2.703125l5.5 0q-0.109375 -1.234375 -0.625 -1.859375q-0.796875 -0.96875 -2.078125 -0.96875q-1.140625 0 -1.9296875 0.7734375q-0.7890625 0.7734375 -0.8671875 2.0546875zm15.500732 5.875l0 -1.25q-0.9375 1.46875 -2.75 1.46875q-1.171875 0 -2.1640625 -0.6484375q-0.9921875 -0.6484375 -1.53125 -1.8125q-0.5390625 -1.1640625 -0.5390625 -2.6796875q0 -1.46875 0.4921875 -2.671875q0.4921875 -1.203125 1.46875 -1.84375q0.9765625 -0.640625 2.1953125 -0.640625q0.890625 0 1.5859375 0.375q0.6953125 0.375 1.1328125 0.984375l0 -4.875l1.65625 0l0 13.59375l-1.546875 0zm-5.28125 -4.921875q0 1.890625 0.8046875 2.828125q0.8046875 0.9375 1.8828125 0.9375q1.09375 0 1.859375 -0.890625q0.765625 -0.890625 0.765625 -2.734375q0 -2.015625 -0.78125 -2.9609375q-0.78125 -0.9453125 -1.921875 -0.9453125q-1.109375 0 -1.859375 0.90625q-0.75 0.90625 -0.75 2.859375z" fill-rule="nonzero"></path><path fill="#000000" d="m202.76117 204.51314l0 -13.59375l1.671875 0l0 4.875q1.171875 -1.359375 2.953125 -1.359375q1.09375 0 1.8984375 0.4296875q0.8046875 0.4296875 1.15625 1.1953125q0.3515625 0.765625 0.3515625 2.203125l0 6.25l-1.671875 0l0 -6.25q0 -1.25 -0.546875 -1.8203125q-0.546875 -0.5703125 -1.53125 -0.5703125q-0.75 0 -1.3984375 0.3828125q-0.6484375 0.3828125 -0.9296875 1.046875q-0.28125 0.6640625 -0.28125 1.8203125l0 5.390625l-1.671875 0zm9.750717 -4.921875q0 -2.734375 1.53125 -4.0625q1.265625 -1.09375 3.09375 -1.09375q2.03125 0 3.3203125 1.3359375q1.2890625 1.3359375 1.2890625 3.6796875q0 1.90625 -0.5703125 2.9921875q-0.5703125 1.0859375 -1.65625 1.6875q-1.0859375 0.6015625 -2.3828125 0.6015625q-2.0625 0 -3.34375 -1.328125q-1.28125 -1.328125 -1.28125 -3.8125zm1.71875 0q0 1.890625 0.828125 2.828125q0.828125 0.9375 2.078125 0.9375q1.25 0 2.0703125 -0.9453125q0.8203125 -0.9453125 0.8203125 -2.8828125q0 -1.828125 -0.828125 -2.765625q-0.828125 -0.9375 -2.0625 -0.9375q-1.25 0 -2.078125 0.9375q-0.828125 0.9375 -0.828125 2.828125zm9.281967 4.921875l0 -9.859375l1.5 0l0 1.390625q0.453125 -0.71875 1.2265625 -1.1640625q0.7734375 -0.4453125 1.7578125 -0.4453125q1.09375 0 1.796875 0.453125q0.703125 0.453125 0.984375 1.28125q1.171875 -1.734375 3.046875 -1.734375q1.46875 0 2.2578125 0.8125q0.7890625 0.8125 0.7890625 2.5l0 6.765625l-1.671875 0l0 -6.203125q0 -1.0 -0.15625 -1.4453125q-0.15625 -0.4453125 -0.5859375 -0.7109375q-0.4296875 -0.265625 -1.0078125 -0.265625q-1.03125 0 -1.71875 0.6875q-0.6875 0.6875 -0.6875 2.21875l0 5.71875l-1.671875 0l0 -6.40625q0 -1.109375 -0.40625 -1.6640625q-0.40625 -0.5546875 -1.34375 -0.5546875q-0.703125 0 -1.3046875 0.3671875q-0.6015625 0.3671875 -0.8671875 1.0859375q-0.265625 0.71875 -0.265625 2.0625l0 5.109375l-1.671875 0zm22.290802 -3.171875l1.71875 0.21875q-0.40625 1.5 -1.5078125 2.3359375q-1.1015625 0.8359375 -2.8203125 0.8359375q-2.15625 0 -3.421875 -1.328125q-1.265625 -1.328125 -1.265625 -3.734375q0 -2.484375 1.2734375 -3.859375q1.2734375 -1.375 3.3203125 -1.375q1.984375 0 3.234375 1.34375q1.25 1.34375 1.25 3.796875q0 0.140625 -0.015625 0.4375l-7.34375 0q0.09375 1.625 0.921875 2.484375q0.828125 0.859375 2.0625 0.859375q0.90625 0 1.5546875 -0.4765625q0.6484375 -0.4765625 1.0390625 -1.5390625zm-5.484375 -2.703125l5.5 0q-0.109375 -1.234375 -0.625 -1.859375q-0.796875 -0.96875 -2.078125 -0.96875q-1.140625 0 -1.9296875 0.7734375q-0.7890625 0.7734375 -0.8671875 2.0546875z" fill-rule="nonzero"></path><path fill="#000000" d="m25.07488 113.82187l0 -9.859375l1.5 0l0 1.5q0.578125 -1.046875 1.0625 -1.3828125q0.484375 -0.3359375 1.078125 -0.3359375q0.84375 0 1.71875 0.546875l-0.578125 1.546875q-0.609375 -0.359375 -1.234375 -0.359375q-0.546875 0 -0.9765625 0.328125q-0.4296875 0.328125 -0.6171875 0.90625q-0.28125 0.890625 -0.28125 1.953125l0 5.15625l-1.671875 0zm12.9783 -3.171875l1.71875 0.21875q-0.40625 1.5 -1.5078125 2.3359375q-1.1015625 0.8359375 -2.8203125 0.8359375q-2.15625 0 -3.421875 -1.328125q-1.2656231 -1.328125 -1.2656231 -3.734375q0 -2.484375 1.2734356 -3.859375q1.2734375 -1.375 3.3203125 -1.375q1.984375 0 3.234375 1.34375q1.25 1.34375 1.25 3.796875q0 0.140625 -0.015625 0.4375l-7.34375 0q0.09375 1.625 0.921875 2.484375q0.828125 0.859375 2.0625 0.859375q0.90625 0 1.5546875 -0.4765625q0.6484375 -0.4765625 1.0390625 -1.5390625zm-5.484375 -2.703125l5.5 0q-0.109375 -1.234375 -0.625 -1.859375q-0.796875 -0.96875 -2.078125 -0.96875q-1.140625 0 -1.9296875 0.7734375q-0.7890625 0.7734375 -0.8671875 2.0546875zm8.438217 2.9375l1.65625 -0.265625q0.140625 1.0 0.7734375 1.5234375q0.6328125 0.5234375 1.7734375 0.5234375q1.15625 0 1.7109375 -0.46875q0.5546875 -0.46875 0.5546875 -1.09375q0 -0.5625 -0.484375 -0.890625q-0.34375 -0.21875 -1.703125 -0.5625q-1.84375 -0.46875 -2.5546875 -0.8046875q-0.7109375 -0.3359375 -1.078125 -0.9375q-0.3671875 -0.6015625 -0.3671875 -1.3203125q0 -0.65625 0.3046875 -1.21875q0.3046875 -0.5625 0.8203125 -0.9375q0.390625 -0.28125 1.0625 -0.484375q0.671875 -0.203125 1.4375 -0.203125q1.171875 0 2.046875 0.3359375q0.875 0.3359375 1.2890625 0.90625q0.4140625 0.5703125 0.5703125 1.5234375l-1.625 0.21875q-0.109375 -0.75 -0.6484375 -1.1796875q-0.5390625 -0.4296875 -1.5078125 -0.4296875q-1.15625 0 -1.640625 0.3828125q-0.484375 0.3828125 -0.484375 0.8828125q0 0.328125 0.203125 0.59375q0.203125 0.265625 0.640625 0.4375q0.25 0.09375 1.46875 0.4375q1.765625 0.46875 2.46875 0.765625q0.703125 0.296875 1.1015625 0.875q0.3984375 0.578125 0.3984375 1.4375q0 0.828125 -0.484375 1.5703125q-0.484375 0.7421875 -1.40625 1.140625q-0.921875 0.3984375 -2.078125 0.3984375q-1.921875 0 -2.9296875 -0.796875q-1.0078125 -0.796875 -1.2890625 -2.359375zm16.453125 2.9375l0 -1.453125q-1.140625 1.671875 -3.125 1.671875q-0.859375 0 -1.6171875 -0.3359375q-0.7578125 -0.3359375 -1.125 -0.8359375q-0.3671875 -0.5 -0.5234375 -1.234375q-0.09375 -0.5 -0.09375 -1.5625l0 -6.109375l1.671875 0l0 5.46875q0 1.3125 0.09375 1.765625q0.15625 0.65625 0.671875 1.03125q0.515625 0.375 1.265625 0.375q0.75 0 1.40625 -0.3828125q0.65625 -0.3828125 0.9296875 -1.046875q0.2734375 -0.6640625 0.2734375 -1.9296875l0 -5.28125l1.671875 0l0 9.859375l-1.5 0zm3.9225922 0l0 -9.859375l1.5 0l0 1.390625q0.453125 -0.71875 1.2265663 -1.1640625q0.7734375 -0.4453125 1.7578125 -0.4453125q1.09375 0 1.796875 0.453125q0.703125 0.453125 0.984375 1.28125q1.171875 -1.734375 3.046875 -1.734375q1.46875 0 2.2578125 0.8125q0.7890625 0.8125 0.7890625 2.5l0 6.765625l-1.671875 0l0 -6.203125q0 -1.0 -0.15625 -1.4453125q-0.15625 -0.4453125 -0.5859375 -0.7109375q-0.4296875 -0.265625 -1.0078125 -0.265625q-1.03125 0 -1.71875 0.6875q-0.6875 0.6875 -0.6875 2.21875l0 5.71875l-1.671875 0l0 -6.40625q0 -1.109375 -0.40625 -1.6640625q-0.40625 -0.5546875 -1.34375 -0.5546875q-0.703125 0 -1.3046875 0.3671875q-0.6015663 0.3671875 -0.8671913 1.0859375q-0.265625 0.71875 -0.265625 2.0625l0 5.109375l-1.671875 0zm22.290806 -3.171875l1.71875 0.21875q-0.40625 1.5 -1.5078125 2.3359375q-1.1015625 0.8359375 -2.8203125 0.8359375q-2.15625 0 -3.421875 -1.328125q-1.265625 -1.328125 -1.265625 -3.734375q0 -2.484375 1.2734375 -3.859375q1.2734375 -1.375 3.3203125 -1.375q1.984375 0 3.234375 1.34375q1.25 1.34375 1.25 3.796875q0 0.140625 -0.015625 0.4375l-7.34375 0q0.09375 1.625 0.921875 2.484375q0.828125 0.859375 2.0625 0.859375q0.90625 0 1.5546875 -0.4765625q0.6484375 -0.4765625 1.0390625 -1.5390625zm-5.484375 -2.703125l5.5 0q-0.109375 -1.234375 -0.625 -1.859375q-0.796875 -0.96875 -2.078125 -0.96875q-1.140625 0 -1.9296875 0.7734375q-0.7890625 0.7734375 -0.8671875 2.0546875z" fill-rule="nonzero"></path></svg>

